<?xml version="1.0" encoding="UTF-8"?>
<!DOCTYPE svg PUBLIC "-//W3C//DTD SVG 1.1//EN" "http://www.w3.org/Graphics/SVG/1.1/DTD/svg11.dtd">
<!-- Creator: CorelDRAW 2018 (64-Bit) -->
<svg xmlns="http://www.w3.org/2000/svg" xml:space="preserve" width="2.95442in" height="1.60233in" version="1.1" style="shape-rendering:geometricPrecision; text-rendering:geometricPrecision; image-rendering:optimizeQuality; fill-rule:evenodd; clip-rule:evenodd"
viewBox="0 0 10342 5609"
 xmlns:xlink="http://www.w3.org/1999/xlink">
 <defs>
  <style type="text/css">
   <![CDATA[
    .fil1 {fill:#1A1A1A}
    .fil0 {fill:#1A1A1A;fill-rule:nonzero}
   ]]>
  </style>
 </defs>
 <g id="Layer_x0020_1">
  <metadata id="CorelCorpID_0Corel-Layer"/>
  <path class="fil0" d="M4336 1248l-968 2894 -624 0 -574 -1722 -574 1722 -624 0 -973 -2894 758 0 544 1806 462 -1534c63,-159 217,-271 398,-272l7 0c184,2 341,118 401,282l463 1525 544 -1806 758 0zm2934 2889l-719 0 0 -1472c0,-42 0,-84 0,-126 0,-324 -262,-586 -586,-586 -311,0 -566,243 -585,549l-1 1 0 37 0 1598 -719 0 0 -4137c378,0 690,293 721,663l3 754c106,-83 230,-145 369,-185 140,-40 274,-60 404,-60 150,0 291,24 424,72 133,48 251,121 354,220 103,98 185,221 244,369 60,148 90,324 90,526l0 1776zm-1891 -4137l0 0 1 396 -1 -396z"/>
  <g id="_2614169588464">
   <path class="fil1" d="M7806 4946l0 238c30,2 60,3 91,3 577,0 1069,-361 1264,-870l1181 -3120 -793 0 -639 1903 -680 -1903 -803 0 1054 2733c10,23 19,46 27,71 22,57 30,98 34,149l0 0c-113,238 -355,402 -636,402 -34,0 -67,-2 -99,-7l0 401zm0 439l13 37 -13 -37zm1205 -674l149 -394 0 0 -149 394z"/>
   <path class="fil1" d="M7231 4545l0 0c-176,0 -320,144 -320,320l0 0c0,176 144,320 320,320l0 0c176,0 320,-144 320,-320l0 0c0,-176 -144,-320 -320,-320z"/>
  </g>
  <path class="fil1" d="M5499 4961c0,49 -8,95 -25,139 -16,44 -40,83 -69,116 -30,33 -65,60 -106,79 -41,20 -86,29 -135,29 -30,0 -59,-4 -85,-13 -26,-8 -51,-22 -75,-40l1 336 -174 0 0 -997 174 0 1 36c20,-16 44,-29 71,-38 28,-10 57,-14 87,-14 42,0 84,9 124,28 40,19 76,45 107,77 31,33 56,71 75,116 19,44 28,93 28,145zm-177 1c0,-33 -5,-62 -14,-89 -10,-26 -23,-49 -40,-68 -17,-19 -38,-33 -61,-43 -24,-10 -50,-15 -79,-15 -18,0 -39,4 -63,11 -24,8 -44,18 -60,31l0 333c38,34 80,52 127,52 27,0 53,-5 77,-16 24,-10 44,-25 61,-44 17,-19 30,-41 40,-67 10,-26 14,-54 14,-85zm671 329c-18,11 -38,20 -61,25 -23,6 -46,8 -70,8 -41,0 -75,-5 -103,-15 -28,-10 -50,-25 -67,-46 -17,-21 -29,-47 -37,-79 -8,-32 -11,-70 -11,-113l0 -304 -91 0 0 -78c56,-23 101,-58 136,-103 35,-46 59,-105 71,-178l56 0 0 203 175 0 0 156 -175 0 0 316c0,18 2,32 7,43 4,11 10,20 17,26 7,6 15,11 25,13 9,2 19,4 29,4 14,0 30,-2 49,-7 19,-5 36,-13 49,-24l0 153z"/>
  <path class="fil1" d="M6131 5492l0 56c7,0 14,1 21,1 136,0 252,-85 298,-205l278 -735 -187 0 -151 448 -160 -448 -189 0 248 644c2,5 5,11 6,17 5,13 7,23 8,35l0 0c-27,56 -84,95 -150,95 -8,0 -16,-1 -23,-2l0 95zm319 -148l0 0 0 0 0 0z"/>
 </g>
</svg>
