<?xml version="1.0" encoding="UTF-8"?>
<!DOCTYPE svg PUBLIC "-//W3C//DTD SVG 1.1//EN" "http://www.w3.org/Graphics/SVG/1.1/DTD/svg11.dtd">
<!-- Creator: CorelDRAW 2018 (64-Bit) -->
<svg xmlns="http://www.w3.org/2000/svg" xml:space="preserve" width="2.95442in" height="1.60233in" version="1.1" style="shape-rendering:geometricPrecision; text-rendering:geometricPrecision; image-rendering:optimizeQuality; fill-rule:evenodd; clip-rule:evenodd"
viewBox="0 0 7767 4212"
 xmlns:xlink="http://www.w3.org/1999/xlink">
 <defs>
  <style type="text/css">
   <![CDATA[
    .fil1 {fill:#FFCC00}
    .fil2 {fill:white}
    .fil0 {fill:#FFCC00;fill-rule:nonzero}
   ]]>
  </style>
 </defs>
 <g id="Layer_x0020_1">
  <metadata id="CorelCorpID_0Corel-Layer"/>
  <path class="fil0" d="M3257 937l-727 2174 -468 0 -431 -1293 -431 1293 -468 0 -731 -2174 570 0 408 1357 347 -1152c47,-119 163,-203 299,-205l6 0c138,1 256,89 301,212l348 1145 408 -1357 570 0zm2204 2170l-540 0 0 -1105c0,-32 0,-63 0,-94 0,-243 -197,-440 -440,-440 -234,0 -425,182 -439,412l-1 1 0 28 0 1200 -540 0 0 -3107c284,0 518,220 541,498l2 566c80,-62 172,-109 277,-139 105,-30 206,-45 304,-45 112,0 219,18 319,54 100,36 189,91 266,165 77,74 139,166 184,277 45,111 67,243 67,395l0 1334zm-1420 -3107l0 0 1 297 -1 -297z"/>
  <g id="_2614834575872">
   <path class="fil1" d="M5863 3714l0 179c23,1 45,2 68,2 433,0 803,-271 949,-653l887 -2343 -596 0 -480 1429 -511 -1429 -603 0 792 2053c8,17 15,35 20,53 16,43 23,74 25,112l0 0c-85,179 -267,302 -477,302 -25,0 -50,-2 -74,-5l0 301zm0 330l10 28 -10 -28zm905 -506l112 -296 0 0 -112 296z"/>
   <path class="fil1" d="M5430 3413l0 0c-132,0 -240,108 -240,240l0 0c0,132 108,240 240,240l0 0c132,0 240,-108 240,-240l0 0c0,-132 -108,-240 -240,-240z"/>
  </g>
  <path class="fil2" d="M4130 3726c0,37 -6,72 -18,105 -12,33 -30,62 -52,87 -22,25 -49,45 -80,60 -31,15 -65,22 -101,22 -23,0 -44,-3 -64,-9 -20,-6 -39,-16 -56,-30l1 253 -131 0 0 -749 131 0 1 27c15,-12 33,-22 54,-29 21,-7 43,-11 65,-11 32,0 63,7 93,21 30,14 57,34 80,58 23,25 42,54 56,87 14,33 21,70 21,109zm-133 1c0,-25 -4,-47 -11,-67 -7,-20 -17,-37 -30,-51 -13,-14 -28,-25 -46,-32 -18,-8 -38,-11 -59,-11 -14,0 -30,3 -48,9 -18,6 -33,13 -45,23l0 250c28,26 60,39 95,39 21,0 40,-4 58,-12 18,-8 33,-19 46,-33 13,-14 23,-31 30,-51 7,-20 11,-41 11,-64zm504 247c-13,8 -29,15 -46,19 -17,4 -35,6 -52,6 -31,0 -57,-4 -78,-11 -21,-8 -38,-19 -51,-35 -13,-16 -22,-35 -28,-60 -6,-24 -9,-52 -9,-85l0 -228 -69 0 0 -59c42,-17 76,-43 102,-78 26,-34 44,-79 54,-134l42 0 0 152 132 0 0 117 -132 0 0 237c0,13 2,24 5,32 3,8 8,15 13,20 5,5 12,8 18,10 7,2 14,3 22,3 10,0 23,-2 37,-5 14,-4 27,-10 37,-18l0 115z"/>
  <path class="fil2" d="M4604 4125l0 42c5,0 11,1 16,1 102,0 189,-64 224,-154l209 -552 -140 0 -113 337 -120 -337 -142 0 187 484c2,4 3,8 5,12 4,10 5,17 6,26l0 0c-20,42 -63,71 -112,71 -6,0 -12,0 -18,-1l0 71zm240 -111l0 0 0 0 0 0z"/>
 </g>
</svg>
