<?xml version="1.0" encoding="UTF-8"?>
<!DOCTYPE svg PUBLIC "-//W3C//DTD SVG 1.1//EN" "http://www.w3.org/Graphics/SVG/1.1/DTD/svg11.dtd">
<!-- Creator: CorelDRAW 2018 (64-Bit) -->
<svg xmlns="http://www.w3.org/2000/svg" xml:space="preserve" width="2.95442in" height="1.60233in" version="1.1" style="shape-rendering:geometricPrecision; text-rendering:geometricPrecision; image-rendering:optimizeQuality; fill-rule:evenodd; clip-rule:evenodd"
viewBox="0 0 8280 4491"
 xmlns:xlink="http://www.w3.org/1999/xlink">
 <defs>
  <style type="text/css">
   <![CDATA[
    .fil2 {fill:#1A1A1A}
    .fil1 {fill:#FFCC00}
    .fil0 {fill:#FFCC00;fill-rule:nonzero}
   ]]>
  </style>
 </defs>
 <g id="Layer_x0020_1">
  <metadata id="CorelCorpID_0Corel-Layer"/>
  <g id="_2614116517472">
   <path class="fil0" d="M3472 999l-775 2317 -499 0 -459 -1378 -459 1378 -499 0 -779 -2317 607 0 436 1446 370 -1228c50,-127 174,-217 318,-218l6 0c147,1 273,95 321,226l371 1221 436 -1446 607 0zm2349 2313l-575 0 0 -1179c0,-34 0,-67 0,-101 0,-259 -210,-469 -469,-469 -249,0 -453,194 -468,439l-1 1 0 29 0 1279 -575 0 0 -3312c302,0 553,235 577,531l2 604c85,-67 184,-116 296,-148 112,-32 220,-48 324,-48 120,0 233,19 340,58 107,39 201,97 284,176 83,79 148,177 196,296 48,119 72,259 72,422l0 1422zm-1514 -3312l0 0 1 317 -1 -317z"/>
   <g>
    <path class="fil1" d="M6250 3960l0 191c24,2 48,2 73,2 462,0 856,-289 1012,-696l946 -2499 -635 0 -512 1524 -545 -1524 -643 0 844 2188c8,18 16,37 22,57 18,46 24,79 27,119l0 0c-90,190 -284,322 -509,322 -27,0 -53,-2 -79,-6l0 321zm0 352l11 30 -11 -30zm965 -539l119 -316 0 0 -119 316z"/>
    <path class="fil1" d="M5789 3639l0 0c-141,0 -256,115 -256,256l0 0c0,141 115,256 256,256l0 0c141,0 256,-115 256,-256l0 0c0,-141 -115,-256 -256,-256z"/>
   </g>
   <path class="fil2" d="M4403 3973c0,39 -7,76 -20,112 -13,35 -32,66 -55,93 -24,27 -52,48 -85,63 -33,16 -69,24 -108,24 -24,0 -47,-3 -68,-10 -21,-7 -41,-17 -60,-32l1 269 -139 0 0 -798 139 0 1 29c16,-13 35,-23 57,-31 22,-8 45,-12 70,-12 34,0 67,8 99,23 32,15 61,36 86,62 25,26 45,57 60,93 15,36 23,74 23,116zm-141 1c0,-26 -4,-50 -12,-71 -8,-21 -19,-39 -32,-54 -14,-15 -30,-27 -49,-35 -19,-8 -40,-12 -63,-12 -15,0 -32,3 -51,9 -19,6 -35,14 -48,25l0 266c30,28 64,41 101,41 22,0 42,-4 61,-13 19,-8 35,-20 49,-35 13,-15 24,-33 32,-54 8,-21 12,-43 12,-68zm538 264c-14,9 -30,16 -49,20 -19,4 -37,7 -56,7 -33,0 -60,-4 -83,-12 -22,-8 -40,-20 -54,-37 -13,-17 -23,-38 -29,-63 -6,-26 -9,-56 -9,-90l0 -243 -73 0 0 -63c45,-19 81,-46 109,-83 28,-37 47,-84 57,-142l45 0 0 163 140 0 0 125 -140 0 0 253c0,14 2,26 5,35 4,9 8,16 14,21 6,5 12,9 20,11 7,2 15,3 24,3 11,0 24,-2 39,-6 15,-4 29,-10 39,-19l0 122z"/>
   <path class="fil2" d="M4909 4398l0 45c6,0 11,1 17,1 109,0 202,-68 238,-164l223 -589 -150 0 -121 359 -128 -359 -152 0 199 516c2,4 4,9 5,13 4,11 6,19 6,28l0 0c-21,45 -67,76 -120,76 -6,0 -13,0 -19,-1l0 76zm256 -119l0 0 0 0 0 0z"/>
  </g>
 </g>
</svg>
