<?xml version="1.0" encoding="UTF-8"?>
<!DOCTYPE svg PUBLIC "-//W3C//DTD SVG 1.1//EN" "http://www.w3.org/Graphics/SVG/1.1/DTD/svg11.dtd">
<!-- Creator: CorelDRAW 2018 (64-Bit) -->
<svg xmlns="http://www.w3.org/2000/svg" xml:space="preserve" width="2.95442in" height="1.60233in" version="1.1" style="shape-rendering:geometricPrecision; text-rendering:geometricPrecision; image-rendering:optimizeQuality; fill-rule:evenodd; clip-rule:evenodd"
viewBox="0 0 8903 4829"
 xmlns:xlink="http://www.w3.org/1999/xlink">
 <defs>
  <style type="text/css">
   <![CDATA[
    .fil1 {fill:white}
    .fil0 {fill:white;fill-rule:nonzero}
   ]]>
  </style>
 </defs>
 <g id="Layer_x0020_1">
  <metadata id="CorelCorpID_0Corel-Layer"/>
  <path class="fil0" d="M3733 1074l-833 2492 -537 0 -494 -1482 -494 1482 -537 0 -838 -2492 653 0 468 1555 398 -1321c54,-136 187,-233 342,-235l6 0c158,1 293,102 345,243l399 1313 468 -1555 653 0zm2526 2487l-619 0 0 -1267c0,-36 0,-72 0,-108 0,-279 -226,-505 -505,-505 -268,0 -487,209 -504,473l-1 1 0 32 0 1375 -619 0 0 -3561c325,0 594,252 621,571l2 649c92,-72 198,-125 318,-159 120,-34 236,-52 348,-52 129,0 251,21 365,62 115,42 216,105 305,189 89,84 159,190 210,318 52,127 77,279 77,453l0 1529zm-1628 -3561l0 0 1 341 -1 -341z"/>
  <g id="_2650014653200">
   <path class="fil1" d="M6720 4258l0 205c26,2 52,3 78,3 497,0 921,-311 1088,-749l1017 -2686 -683 0 -551 1638 -586 -1638 -691 0 908 2353c9,20 17,40 23,61 19,49 26,84 29,128l0 0c-97,205 -306,346 -547,346 -29,0 -57,-2 -85,-6l0 345zm0 378l12 32 -12 -32zm1038 -580l128 -339 0 0 -128 339z"/>
   <path class="fil1" d="M6225 3913l0 0c-151,0 -275,124 -275,275l0 0c0,151 124,275 275,275l0 0c151,0 275,-124 275,-275l0 0c0,-151 -124,-275 -275,-275z"/>
  </g>
  <path class="fil1" d="M4735 4271c0,42 -7,82 -21,120 -14,38 -34,71 -60,100 -26,29 -56,51 -91,68 -35,17 -74,25 -116,25 -26,0 -51,-4 -74,-11 -23,-7 -44,-19 -64,-35l1 290 -150 0 0 -858 150 0 1 31c17,-14 38,-25 62,-33 24,-8 49,-12 75,-12 37,0 72,8 107,24 34,16 65,38 92,67 27,28 48,62 65,100 16,38 24,80 24,125zm-152 1c0,-28 -4,-54 -12,-77 -8,-23 -20,-42 -35,-58 -15,-16 -33,-29 -53,-37 -21,-9 -43,-13 -68,-13 -16,0 -34,3 -54,10 -20,7 -38,15 -51,26l0 286c33,30 69,44 109,44 24,0 46,-4 66,-13 20,-9 38,-22 52,-38 14,-16 26,-35 34,-58 8,-22 12,-47 12,-73zm578 283c-15,10 -33,17 -53,22 -20,5 -40,7 -60,7 -35,0 -65,-4 -89,-13 -24,-9 -43,-22 -58,-40 -14,-18 -25,-41 -32,-68 -7,-28 -10,-60 -10,-97l0 -262 -79 0 0 -67c48,-20 87,-50 117,-89 30,-39 50,-90 62,-153l49 0 0 175 151 0 0 134 -151 0 0 272c0,15 2,28 6,37 4,10 9,17 15,23 6,6 13,9 21,11 8,2 16,3 25,3 12,0 26,-2 42,-6 17,-4 31,-11 42,-21l0 131z"/>
  <path class="fil1" d="M5278 4728l0 48c6,0 12,1 18,1 117,0 217,-73 256,-176l240 -633 -161 0 -130 386 -138 -386 -163 0 214 554c2,5 4,9 6,14 4,12 6,20 7,30l0 0c-23,48 -72,82 -129,82 -7,0 -14,0 -20,-1l0 81zm275 -128l0 0 0 0 0 0z"/>
 </g>
</svg>
