<?xml version="1.0" encoding="UTF-8"?>
<!DOCTYPE svg PUBLIC "-//W3C//DTD SVG 1.1//EN" "http://www.w3.org/Graphics/SVG/1.1/DTD/svg11.dtd">
<!-- Creator: CorelDRAW 2018 (64-Bit) -->
<svg xmlns="http://www.w3.org/2000/svg" xml:space="preserve" width="3.26535in" height="2.73725in" version="1.1" style="shape-rendering:geometricPrecision; text-rendering:geometricPrecision; image-rendering:optimizeQuality; fill-rule:evenodd; clip-rule:evenodd"
viewBox="0 0 12705 10650"
 xmlns:xlink="http://www.w3.org/1999/xlink">
 <defs>
  <style type="text/css">
   <![CDATA[
    .fil0 {fill:#F15E57;fill-rule:nonzero}
   ]]>
  </style>
 </defs>
 <g id="Layer_x0020_1">
  <metadata id="CorelCorpID_0Corel-Layer"/>
  <g id="_2444124677760">
   <g>
    <path class="fil0" d="M5238 6527c-67,148 -155,278 -264,390 -109,112 -237,200 -385,264 -148,63 -306,95 -475,95 -169,0 -329,-33 -480,-100 -151,-67 -283,-155 -396,-264 -113,-109 -200,-237 -264,-385 -64,-147 -95,-306 -95,-474 0,-169 33,-328 100,-480 66,-151 154,-283 263,-395 109,-112 237,-200 385,-264 147,-63 305,-95 474,-95 176,0 338,33 485,100 148,67 278,157 390,269 113,112 201,244 264,396 64,151 95,311 95,480 0,162 -33,316 -100,464l0 0zm1284 -1621c-350,-179 -559,-525 -583,-891 -173,4 -349,-34 -513,-119 -292,-150 -486,-415 -557,-711 -81,-7 -164,-11 -248,-11 -675,0 -1237,236 -1687,706l0 -3880 -1908 0 0 8752 1908 0 0 -601c408,513 963,770 1666,770 387,0 747,-76 1081,-227 334,-151 624,-357 870,-617 246,-260 438,-566 575,-917 137,-352 205,-728 205,-1128 0,-358 -56,-697 -166,-1018 -213,30 -436,-2 -642,-108z"/>
   </g>
  </g>
  <g>
   <path class="fil0" d="M8321 8559l-709 0 0 -2011 709 0 0 2011zm-756 -2782c0,-55 10,-106 31,-155 21,-48 49,-91 86,-127 37,-37 79,-65 127,-86 48,-21 100,-32 155,-32 55,0 107,11 155,32 48,21 90,50 127,86 37,36 65,79 86,127 21,48 31,100 31,155 0,55 -11,106 -31,155 -21,48 -50,91 -86,127 -37,37 -79,65 -127,86 -48,21 -100,31 -155,31 -55,0 -106,-10 -155,-31 -48,-21 -91,-50 -127,-86 -37,-37 -65,-79 -86,-127 -21,-48 -31,-100 -31,-155z"/>
  </g>
  <g>
   <polygon class="fil0" points="9599,7141 9599,8559 8890,8559 8890,7141 8654,7141 8654,6549 8890,6549 8890,5945 9599,5945 9599,6549 10002,6549 10002,7141 "/>
  </g>
  <g>
   <path class="fil0" d="M11778 7262c-24,-99 -72,-179 -145,-239 -73,-60 -162,-90 -266,-90 -110,0 -199,29 -269,86 -69,58 -113,139 -131,243l811 0zm-831 412c0,306 144,459 431,459 154,0 270,-63 349,-188l686 0c-138,460 -485,690 -1038,690 -170,0 -325,-26 -466,-76 -141,-51 -262,-124 -363,-218 -100,-94 -178,-206 -233,-337 -55,-131 -82,-277 -82,-439 0,-167 26,-318 78,-453 52,-135 127,-249 223,-343 97,-94 213,-166 351,-218 137,-51 292,-76 465,-76 169,0 322,25 458,76 136,51 251,125 345,221 94,97 166,215 216,355 49,140 74,297 74,472l0 75 -1493 0z"/>
  </g>
  <g>
   <g id="_2444124692864">
    <path class="fil0" d="M403 10285c-32,-39 -71,-58 -117,-58 -20,0 -39,4 -57,11 -17,7 -32,18 -45,30 -13,13 -22,28 -30,46 -7,18 -11,37 -11,57 0,21 4,40 11,58 7,18 17,33 30,46 13,13 28,23 45,31 17,7 36,11 56,11 44,0 83,-19 118,-56l0 162 -14 5c-21,7 -40,13 -59,16 -18,3 -36,5 -54,5 -36,0 -71,-7 -104,-21 -33,-14 -63,-33 -88,-58 -25,-25 -46,-54 -61,-89 -15,-34 -23,-72 -23,-112 0,-41 8,-78 23,-111 15,-34 35,-63 61,-87 25,-24 55,-44 88,-57 33,-14 69,-21 105,-21 21,0 42,2 62,7 20,4 42,11 64,21l0 163z"/>
   </g>
   <g id="_2444124692960">
    <g>
     <path class="fil0" d="M616 10372c0,21 4,40 12,58 8,18 19,33 32,46 14,13 29,23 47,30 18,7 37,11 57,11 20,0 39,-4 57,-11 18,-7 34,-17 47,-30 14,-13 25,-28 32,-46 8,-18 12,-37 12,-58 0,-21 -4,-40 -12,-58 -8,-18 -19,-33 -32,-46 -14,-13 -30,-23 -47,-30 -18,-7 -37,-11 -57,-11 -20,0 -39,4 -57,11 -18,7 -34,17 -47,30 -13,13 -24,28 -32,46 -8,18 -12,37 -12,58l0 0zm-143 0c0,-39 7,-76 22,-109 14,-34 34,-63 60,-88 26,-25 56,-45 92,-59 36,-14 75,-21 118,-21 42,0 81,7 117,21 36,14 67,34 92,59 26,25 46,55 60,88 14,34 22,70 22,109 0,39 -7,76 -22,109 -14,34 -35,63 -60,88 -26,25 -57,45 -92,59 -36,14 -75,21 -117,21 -43,0 -82,-7 -118,-21 -36,-14 -66,-34 -92,-59 -26,-25 -46,-55 -60,-88 -14,-34 -22,-70 -22,-109z"/>
    </g>
   </g>
   <g>
    <polygon class="fil0" points="1119,10635 1208,10109 1344,10109 1449,10390 1554,10109 1689,10109 1779,10635 1643,10635 1597,10333 1473,10635 1418,10635 1300,10333 1255,10635 "/>
   </g>
   <g>
    <rect class="fil0" x="1865" y="10109" width="137" height="526"/>
   </g>
   <g>
    <path class="fil0" d="M2249 10520l31 0c24,0 45,-4 63,-11 19,-7 34,-18 47,-31 13,-13 23,-29 29,-46 7,-18 10,-38 10,-59 0,-21 -3,-41 -10,-59 -7,-18 -17,-34 -30,-47 -13,-13 -29,-23 -47,-31 -19,-7 -40,-11 -63,-11l-31 0 0 295zm-137 -410l202 0c36,0 69,7 101,22 31,14 59,34 82,58 24,24 42,52 56,84 14,32 20,65 20,100 0,34 -7,68 -20,99 -13,32 -32,60 -55,84 -24,24 -51,44 -82,58 -31,14 -65,22 -102,22l-202 0 0 -526z"/>
   </g>
   <g>
    <path class="fil0" d="M2925 10440l-61 -175 -61 175 123 0zm36 104l-195 0 -31 91 -146 0 200 -526 149 0 200 526 -146 0 -31 -91z"/>
   </g>
   <g>
    <path class="fil0" d="M3418 10372c0,-11 2,-22 6,-32 4,-10 10,-19 17,-26 7,-7 16,-13 26,-17 10,-4 21,-6 32,-6 11,0 22,2 32,6 10,4 19,10 26,17 7,7 13,16 17,26 4,10 6,21 6,32 0,11 -2,22 -6,32 -4,10 -10,19 -17,26 -8,7 -16,13 -26,17 -10,4 -21,6 -32,6 -11,0 -22,-2 -32,-6 -10,-4 -19,-10 -26,-17 -7,-7 -13,-16 -17,-26 -4,-10 -6,-21 -6,-32z"/>
   </g>
   <g>
    <path class="fil0" d="M4290 10285c-32,-39 -71,-58 -117,-58 -20,0 -39,4 -57,11 -17,7 -32,18 -45,30 -13,13 -22,28 -30,46 -7,18 -11,37 -11,57 0,21 4,40 11,58 7,18 17,33 30,46 13,13 28,23 45,31 17,7 36,11 56,11 44,0 83,-19 118,-56l0 162 -14 5c-21,7 -40,13 -59,16 -18,3 -36,5 -54,5 -36,0 -71,-7 -104,-21 -33,-14 -63,-33 -88,-58 -25,-25 -46,-54 -61,-89 -15,-34 -23,-72 -23,-112 0,-41 8,-78 23,-111 15,-34 35,-63 61,-87 25,-24 55,-44 88,-57 33,-14 69,-21 105,-21 21,0 42,2 62,7 20,4 42,11 64,21l0 163z"/>
   </g>
   <g>
    <path class="fil0" d="M4675 10440l-61 -175 -61 175 123 0zm36 104l-195 0 -31 91 -146 0 200 -526 149 0 200 526 -146 0 -31 -91z"/>
   </g>
   <g>
    <path class="fil0" d="M5238 10244c-15,-12 -30,-21 -45,-27 -15,-6 -29,-9 -43,-9 -18,0 -32,4 -43,13 -11,8 -17,19 -17,33 0,9 3,17 8,23 6,6 13,11 22,16 9,4 19,8 31,12 11,3 23,7 34,10 45,15 77,35 98,60 21,25 31,57 31,97 0,27 -5,51 -14,73 -9,22 -22,41 -40,56 -17,16 -39,28 -64,36 -25,9 -54,13 -86,13 -67,0 -128,-20 -185,-59l59 -110c20,18 41,32 61,40 20,9 40,13 59,13 22,0 39,-5 50,-15 11,-10 16,-22 16,-35 0,-8 -1,-15 -4,-21 -3,-6 -7,-11 -14,-16 -7,-5 -15,-9 -26,-14 -10,-4 -23,-9 -38,-14 -18,-6 -35,-12 -52,-18 -17,-7 -32,-16 -45,-27 -13,-11 -24,-25 -32,-42 -8,-17 -12,-39 -12,-65 0,-26 4,-50 13,-71 9,-21 21,-39 36,-54 16,-15 35,-27 57,-35 23,-8 48,-13 76,-13 26,0 53,4 82,11 28,7 56,18 82,32l-54 107z"/>
   </g>
   <g>
    <polygon class="fil0" points="5699,10225 5536,10225 5536,10313 5690,10313 5690,10429 5536,10429 5536,10520 5699,10520 5699,10635 5400,10635 5400,10109 5699,10109 "/>
   </g>
   <g>
    <path class="fil0" d="M5934 10344l26 0c27,0 48,-6 62,-17 14,-11 22,-27 22,-48 0,-21 -7,-37 -22,-48 -14,-11 -35,-17 -62,-17l-26 0 0 130zm301 291l-170 0 -131 -202 0 202 -137 0 0 -526 213 0c29,0 55,4 77,13 22,9 40,20 54,35 14,15 25,32 32,52 7,20 11,40 11,63 0,40 -10,73 -29,97 -19,25 -48,42 -85,51l165 216z"/>
   </g>
   <g>
    <path class="fil0" d="M6579 10440l-61 -175 -61 175 123 0zm36 104l-195 0 -31 91 -146 0 200 -526 149 0 200 526 -146 0 -31 -91z"/>
   </g>
   <g>
    <path class="fil0" d="M7299 10257c15,0 29,3 42,9 13,6 24,14 34,24 10,10 17,22 23,35 6,13 8,27 8,41 0,15 -3,30 -8,43 -6,13 -13,25 -23,35 -10,10 -21,18 -35,24 -13,6 -28,9 -43,9 -15,0 -29,-3 -42,-9 -13,-6 -24,-14 -34,-23 -10,-10 -18,-21 -23,-35 -6,-13 -9,-28 -9,-43 0,-15 3,-30 8,-43 6,-13 13,-25 23,-35 10,-10 21,-18 35,-24 14,-6 28,-9 43,-9z"/>
   </g>
   <g>
    <path class="fil0" d="M8139 10440l-61 -175 -61 175 123 0zm36 104l-195 0 -31 91 -146 0 200 -526 149 0 200 526 -146 0 -31 -91z"/>
   </g>
   <g>
    <path class="fil0" d="M8787 10520l31 0c24,0 45,-4 64,-11 19,-7 34,-18 47,-31 13,-13 23,-29 29,-46 7,-18 10,-38 10,-59 0,-21 -4,-41 -10,-59 -7,-18 -17,-34 -30,-47 -13,-13 -29,-23 -47,-31 -19,-7 -40,-11 -63,-11l-31 0 0 295zm-137 -410l202 0c36,0 69,7 101,22 31,14 59,34 82,58 23,24 42,52 56,84 13,32 20,65 20,100 0,34 -7,68 -20,99 -13,32 -32,60 -55,84 -24,24 -51,44 -82,58 -31,14 -65,22 -102,22l-202 0 0 -526z"/>
   </g>
   <g>
    <g>
     <path class="fil0" d="M9319 10372c0,21 4,40 12,58 8,18 19,33 32,46 13,13 29,23 47,30 18,7 37,11 57,11 20,0 39,-4 57,-11 18,-7 34,-17 47,-30 14,-13 25,-28 32,-46 8,-18 12,-37 12,-58 0,-21 -4,-40 -12,-58 -8,-18 -19,-33 -32,-46 -14,-13 -30,-23 -47,-30 -18,-7 -37,-11 -57,-11 -20,0 -39,4 -57,11 -18,7 -34,17 -47,30 -14,13 -24,28 -32,46 -8,18 -12,37 -12,58l0 0zm-143 0c0,-39 7,-76 22,-109 14,-34 34,-63 60,-88 26,-25 56,-45 92,-59 36,-14 75,-21 118,-21 42,0 81,7 117,21 36,14 67,34 93,59 26,25 46,55 60,88 14,34 22,70 22,109 0,39 -7,76 -22,109 -14,34 -35,63 -60,88 -26,25 -57,45 -93,59 -36,14 -75,21 -117,21 -43,0 -82,-7 -118,-21 -36,-14 -66,-34 -92,-59 -26,-25 -46,-55 -60,-88 -14,-34 -22,-70 -22,-109z"/>
    </g>
   </g>
   <g>
    <polygon class="fil0" points="9821,10635 9911,10109 10046,10109 10151,10390 10256,10109 10392,10109 10481,10635 10345,10635 10299,10333 10175,10635 10121,10635 10003,10333 9957,10635 "/>
   </g>
   <g>
    <rect class="fil0" x="10567" y="10109" width="137" height="526"/>
   </g>
   <g>
    <path class="fil0" d="M11194 10285c-32,-39 -71,-58 -117,-58 -20,0 -39,4 -57,11 -17,7 -32,18 -45,30 -13,13 -22,28 -30,46 -7,18 -11,37 -11,57 0,21 4,40 11,58 7,18 17,33 30,46 13,13 28,23 45,31 17,7 36,11 56,11 44,0 83,-19 118,-56l0 162 -14 5c-21,7 -41,13 -59,16 -18,3 -36,5 -54,5 -36,0 -71,-7 -104,-21 -33,-14 -63,-33 -88,-58 -25,-25 -46,-54 -61,-89 -15,-34 -23,-72 -23,-112 0,-41 8,-78 23,-111 15,-34 35,-63 61,-87 25,-24 55,-44 88,-57 33,-14 69,-21 105,-21 21,0 42,2 62,7 20,4 42,11 64,21l0 163z"/>
   </g>
   <g>
    <rect class="fil0" x="11280" y="10109" width="137" height="526"/>
   </g>
   <g>
    <polygon class="fil0" points="11664,10109 11664,10520 11828,10520 11828,10635 11527,10635 11527,10109 "/>
   </g>
   <g>
    <rect class="fil0" x="11899" y="10109" width="137" height="526"/>
   </g>
   <g>
    <g>
     <path class="fil0" d="M12265 10372c0,21 4,40 12,58 8,18 19,33 32,46 14,13 29,23 47,30 18,7 37,11 57,11 20,0 39,-4 57,-11 18,-7 34,-17 47,-30 14,-13 25,-28 32,-46 8,-18 12,-37 12,-58 0,-21 -4,-40 -12,-58 -8,-18 -19,-33 -32,-46 -14,-13 -30,-23 -47,-30 -18,-7 -37,-11 -57,-11 -20,0 -39,4 -57,11 -18,7 -34,17 -47,30 -13,13 -24,28 -32,46 -8,18 -12,37 -12,58l0 0zm-143 0c0,-39 7,-76 22,-109 14,-34 34,-63 60,-88 26,-25 56,-45 92,-59 36,-14 75,-21 118,-21 42,0 81,7 117,21 36,14 67,34 92,59 26,25 46,55 60,88 14,34 22,70 22,109 0,39 -7,76 -22,109 -14,34 -35,63 -60,88 -26,25 -57,45 -92,59 -36,14 -75,21 -117,21 -43,0 -82,-7 -118,-21 -36,-14 -66,-34 -92,-59 -26,-25 -46,-55 -60,-88 -14,-34 -22,-70 -22,-109z"/>
    </g>
   </g>
  </g>
 </g>
</svg>
