<?xml version="1.0" encoding="UTF-8"?>
<!DOCTYPE svg PUBLIC "-//W3C//DTD SVG 1.1//EN" "http://www.w3.org/Graphics/SVG/1.1/DTD/svg11.dtd">
<!-- Creator: CorelDRAW 2018 (64-Bit) -->
<svg xmlns="http://www.w3.org/2000/svg" xml:space="preserve" width="1.6329in" height="0.410331in" version="1.1" style="shape-rendering:geometricPrecision; text-rendering:geometricPrecision; image-rendering:optimizeQuality; fill-rule:evenodd; clip-rule:evenodd"
viewBox="0 0 219230 55090"
 xmlns:xlink="http://www.w3.org/1999/xlink">
 <defs>
  <style type="text/css">
   <![CDATA[
    .fil2 {fill:#DF393A}
    .fil0 {fill:#373435;fill-rule:nonzero}
    .fil1 {fill:#DF393A;fill-rule:nonzero}
   ]]>
  </style>
 </defs>
 <g id="Capa_x0020_1">
  <metadata id="CorelCorpID_0Corel-Layer"/>
  <g id="_2444110373312">
   <path class="fil0" d="M84015 31091c0,1217 -205,2374 -614,3471 -409,1097 -987,2060 -1726,2888 -738,828 -1621,1486 -2638,1975 -1022,488 -2140,733 -3362,733 -758,0 -1471,-105 -2130,-315 -658,-209 -1281,-543 -1860,-1002l0 898 -4309 0 0 -24837 4339 0 30 8379c499,-399 1093,-718 1781,-958 688,-239 1411,-359 2169,-359 1058,0 2085,234 3082,703 997,469 1885,1112 2663,1930 778,818 1401,1780 1870,2888 469,1107 704,2309 704,3606zm-4369 0c0,-798 -119,-1526 -359,-2185 -239,-658 -579,-1222 -1007,-1691 -429,-468 -943,-828 -1531,-1077 -594,-249 -1247,-374 -1970,-374 -459,0 -987,95 -1591,284 -598,189 -1102,433 -1501,733l0 8319c942,858 2005,1287 3182,1287 683,0 1317,-130 1910,-389 588,-259 1097,-623 1516,-1092 419,-469 753,-1028 993,-1676 239,-649 359,-1362 359,-2140zm23744 0c0,1297 -239,2499 -718,3606 -479,1107 -1137,2065 -1975,2873 -838,808 -1820,1446 -2948,1915 -1127,469 -2329,703 -3606,703 -1277,0 -2474,-234 -3591,-703 -1117,-469 -2095,-1112 -2933,-1930 -838,-818 -1496,-1780 -1975,-2888 -479,-1107 -718,-2299 -718,-3576 0,-1257 244,-2439 733,-3546 488,-1107 1152,-2075 1990,-2902 838,-828 1816,-1476 2933,-1945 1117,-469 2305,-704 3561,-704 1277,0 2479,235 3606,704 1127,469 2110,1107 2948,1915 838,808 1496,1771 1975,2888 479,1117 718,2314 718,3591zm-4309 0c0,-738 -130,-1427 -389,-2065 -259,-639 -608,-1197 -1057,-1676 -449,-479 -973,-853 -1566,-1122 -598,-269 -1232,-404 -1910,-404 -679,0 -1312,135 -1910,404 -594,270 -1117,643 -1566,1122 -449,479 -798,1038 -1057,1676 -260,638 -389,1326 -389,2065 0,738 130,1426 389,2065 259,639 608,1197 1057,1676 449,479 973,853 1566,1122 598,270 1232,404 1910,404 678,0 1311,-135 1910,-404 594,-269 1117,-643 1566,-1122 449,-478 798,-1037 1057,-1676 260,-639 389,-1327 389,-2065zm13120 8558c-339,160 -723,289 -1152,389 -429,100 -873,150 -1332,150 -638,0 -1252,-85 -1840,-254 -589,-170 -1102,-444 -1541,-823 -439,-379 -788,-873 -1047,-1481 -260,-608 -389,-1342 -389,-2199l0 -20528 4399 0 0 19780c0,718 145,1212 434,1482 289,269 633,404 1032,404 498,0 977,-150 1436,-449l0 3531zm18776 -8588c0,280 -15,569 -45,868 -30,299 -65,608 -105,928l-13825 0c160,499 384,973 673,1421 290,449 643,838 1062,1167 419,329 893,588 1421,778 529,190 1112,284 1751,284 778,0 1556,-135 2334,-404 778,-270 1426,-634 1945,-1093l2723 2723c-1197,898 -2369,1531 -3516,1900 -1147,369 -2359,553 -3636,553 -1297,0 -2509,-239 -3636,-718 -1127,-478 -2104,-1127 -2933,-1945 -828,-818 -1481,-1781 -1960,-2888 -479,-1107 -718,-2289 -718,-3546 0,-1257 239,-2439 718,-3546 479,-1107 1137,-2070 1975,-2888 838,-818 1815,-1466 2933,-1945 1117,-479 2314,-718 3591,-718 1217,0 2384,225 3501,673 1117,449 2105,1072 2963,1871 858,798 1536,1750 2034,2857 499,1107 748,2329 748,3666zm-4519 -1676c-339,-1097 -942,-1980 -1810,-2648 -868,-669 -1850,-1003 -2947,-1003 -1077,0 -2045,334 -2903,1003 -858,668 -1456,1551 -1796,2648l9456 0zm15664 9965c-439,279 -948,489 -1526,628 -579,140 -1157,209 -1736,209 -1017,0 -1875,-125 -2573,-374 -698,-249 -1257,-634 -1676,-1152 -419,-519 -723,-1177 -912,-1975 -190,-798 -284,-1735 -284,-2813l0 -7571 -2274 0 0 -1945c1396,-579 2529,-1437 3397,-2574 868,-1137 1461,-2613 1780,-4429l1407 0 0 5057 4369 0 0 3890 -4369 0 0 7870c0,439 55,798 164,1077 110,279 255,499 434,659 180,159 384,269 614,329 229,60 474,90 733,90 339,0 748,-60 1227,-180 479,-119 888,-319 1227,-598l0 3800zm19225 -8259c0,1297 -239,2499 -718,3606 -479,1107 -1137,2065 -1975,2873 -838,808 -1820,1446 -2948,1915 -1127,469 -2329,703 -3606,703 -1277,0 -2474,-234 -3591,-703 -1117,-469 -2095,-1112 -2933,-1930 -838,-818 -1496,-1780 -1975,-2888 -479,-1107 -718,-2299 -718,-3576 0,-1257 244,-2439 733,-3546 488,-1107 1152,-2075 1990,-2902 838,-828 1816,-1476 2933,-1945 1117,-469 2305,-704 3561,-704 1277,0 2479,235 3606,704 1127,469 2110,1107 2948,1915 838,808 1496,1771 1975,2888 479,1117 718,2314 718,3591zm-4309 0c0,-738 -130,-1427 -389,-2065 -259,-639 -608,-1197 -1057,-1676 -449,-479 -973,-853 -1566,-1122 -598,-269 -1232,-404 -1910,-404 -679,0 -1312,135 -1910,404 -594,270 -1117,643 -1566,1122 -449,479 -798,1038 -1057,1676 -260,638 -389,1326 -389,2065 0,738 130,1426 389,2065 259,639 608,1197 1057,1676 449,479 973,853 1566,1122 598,270 1232,404 1910,404 678,0 1311,-135 1910,-404 594,-269 1117,-643 1566,-1122 449,-478 798,-1037 1057,-1676 260,-639 389,-1327 389,-2065z"/>
   <path class="fil1" d="M182157 39739l-4638 0 0 -10593 -9426 0 0 10593 -4638 0 0 -23910 4638 0 0 9486 9426 0 0 -9486 4638 0 0 23910zm18028 0l-4309 0 0 -1317c-279,279 -603,524 -973,733 -369,209 -758,389 -1167,539 -409,150 -828,264 -1257,344 -429,80 -833,120 -1212,120 -878,0 -1721,-140 -2529,-419 -808,-279 -1521,-708 -2140,-1287 -618,-579 -1112,-1327 -1481,-2244 -369,-918 -553,-2005 -553,-3262l0 -10503 4309 0 0 10294c0,618 95,1162 284,1631 189,469 439,858 748,1167 309,309 668,539 1077,688 409,150 833,225 1272,225 1396,0 2604,-479 3621,-1437l0 -12568 4309 0 0 17296zm19045 -8648c0,1217 -205,2374 -614,3471 -409,1097 -987,2060 -1726,2888 -738,828 -1621,1486 -2638,1975 -1022,488 -2140,733 -3362,733 -758,0 -1471,-105 -2130,-315 -658,-209 -1281,-543 -1860,-1002l0 898 -4309 0 0 -24837 4339 0 30 8379c499,-399 1093,-718 1781,-958 688,-239 1411,-359 2169,-359 1058,0 2085,234 3082,703 997,469 1885,1112 2663,1930 778,818 1401,1780 1870,2888 469,1107 704,2309 704,3606zm-4369 0c0,-798 -119,-1526 -359,-2185 -239,-658 -579,-1222 -1007,-1691 -429,-468 -943,-828 -1531,-1077 -594,-249 -1247,-374 -1970,-374 -459,0 -987,95 -1591,284 -598,189 -1102,433 -1501,733l0 8319c942,858 2005,1287 3182,1287 683,0 1317,-130 1910,-389 588,-259 1097,-623 1516,-1092 419,-469 753,-1028 993,-1676 239,-649 359,-1362 359,-2140z"/>
  </g>
  <path class="fil2" d="M27545 0c15212,0 27545,12333 27545,27545 0,15212 -12333,27545 -27545,27545 -15212,0 -27545,-12333 -27545,-27545 0,-15212 12333,-27545 27545,-27545zm0 4896c12509,0 22649,10141 22649,22649 0,12509 -10141,22649 -22649,22649 -12509,0 -22649,-10141 -22649,-22649 0,-12508 10141,-22649 22649,-22649z"/>
  <path class="fil0" d="M42105 27617c402,1567 522,3125 358,4673 -164,1548 -591,2979 -1268,4288 -676,1310 -1595,2449 -2744,3416 -1155,967 -2512,1651 -4086,2056 -976,251 -1929,351 -2846,299 -917,-52 -1829,-276 -2727,-676l297 1156 -5548 1425 -8212 -31981 5587 -1435 2809 10779c510,-679 1169,-1285 1976,-1821 807,-537 1698,-930 2675,-1180 1362,-349 2762,-387 4202,-113 1439,274 2795,809 4067,1604 1273,797 2394,1830 3363,3100 970,1271 1669,2741 2097,4410zm-5626 1445c-264,-1028 -659,-1925 -1185,-2694 -526,-769 -1149,-1382 -1856,-1844 -707,-461 -1487,-754 -2328,-881 -846,-125 -1729,-69 -2660,170 -591,152 -1241,448 -1955,892 -708,441 -1276,923 -1691,1440l2751 10711c1497,793 3007,995 4522,605 880,-226 1653,-602 2332,-1133 672,-529 1206,-1166 1591,-1908 384,-742 630,-1572 724,-2485 94,-914 12,-1872 -245,-2874z"/>
 </g>
</svg>
