<svg xmlns="http://www.w3.org/2000/svg" viewBox="0 0 246.22 84.47"><defs><style>.cls-1{fill:#8cc74d;}.cls-2{fill:#a7a9ac;}.cls-3{fill:none;}.cls-4{fill:#999;}</style></defs><title>Asset 1</title><g id="Layer_2" data-name="Layer 2"><g id="Layer_1-2" data-name="Layer 1"><path class="cls-1" d="M75,49.93a12.56,12.56,0,0,0-3.54-1.83A31.47,31.47,0,0,0,52.71,15.47a12.83,12.83,0,1,0-25.11,0A31.39,31.39,0,0,0,8.84,48.09,12.84,12.84,0,1,0,21.45,69.81a31.55,31.55,0,0,0,37.38,0c.32.28.65.56,1,.81A12.84,12.84,0,0,0,75,49.93ZM53.33,54a16.35,16.35,0,1,1-3.52-22.85A16.33,16.33,0,0,1,53.33,54Z"/><path class="cls-2" d="M108.1,76.19h1.25l3.51,8.15h-1.65l-.76-1.87h-3.54l-.73,1.87h-1.63Zm1.84,5-1.26-3.32-1.27,3.32Z"/><path class="cls-2" d="M118.49,83.51h0a2.14,2.14,0,0,1-1.9,1,2.68,2.68,0,0,1-2.73-2.9,2.72,2.72,0,0,1,2.68-2.9,2.26,2.26,0,0,1,1.87.84h0V75.63h1.38v8.71h-1.31Zm-1.65-.28a1.66,1.66,0,1,0-1.62-1.66A1.6,1.6,0,0,0,116.84,83.23Z"/><path class="cls-2" d="M121.08,78.81h1.51l1.47,3.87h0l1.49-3.87H127l-2.17,5.53h-1.47Z"/><path class="cls-2" d="M131.72,83.58h0a2,2,0,0,1-1.78.89,1.79,1.79,0,0,1-2-1.65c0-1.8,2.09-1.93,3.47-1.93h.35v-.15c0-.68-.53-1-1.27-1a2.2,2.2,0,0,0-1.47.57l-.73-.72a3.27,3.27,0,0,1,2.35-.89c2.36,0,2.36,1.71,2.36,2.49v3.18h-1.24Zm-.08-1.72h-.29c-.76,0-2.07.06-2.07.85,0,.51.52.73,1,.73.94,0,1.39-.5,1.39-1.27Z"/><path class="cls-2" d="M134.91,78.81h1.31v.89h0a1.72,1.72,0,0,1,1.69-1,1.93,1.93,0,0,1,2,2.18v3.49h-1.39v-2.8c0-.61,0-1.62-1-1.62a1.24,1.24,0,0,0-1.27,1.4v3h-1.38Z"/><path class="cls-2" d="M145.76,80.47a1.5,1.5,0,0,0-1-.55,1.66,1.66,0,0,0,0,3.31,1.3,1.3,0,0,0,1.07-.52l.92,1a3.07,3.07,0,0,1-2,.77,2.9,2.9,0,1,1,0-5.8,2.69,2.69,0,0,1,2,.84Z"/><path class="cls-2" d="M149.1,82.06a1.43,1.43,0,0,0,1.49,1.31,1.79,1.79,0,0,0,1.48-.75l1,.75a3,3,0,1,1-2.33-4.7c1.54,0,2.58,1.08,2.58,3v.38Zm2.83-1a1.26,1.26,0,0,0-1.4-1.31A1.38,1.38,0,0,0,149.1,81Z"/><path class="cls-2" d="M159.44,83.51h0a2.14,2.14,0,0,1-1.9,1,2.68,2.68,0,0,1-2.73-2.9,2.72,2.72,0,0,1,2.67-2.9,2.27,2.27,0,0,1,1.88.84h0V75.63h1.39v8.71h-1.32Zm-1.64-.28a1.66,1.66,0,1,0-1.63-1.66A1.6,1.6,0,0,0,157.8,83.23Z"/><path class="cls-1" d="M166.78,76.19H170c1.23,0,2.5.56,2.5,2A1.82,1.82,0,0,1,171,80v0a1.94,1.94,0,0,1,1.76,2c0,1.77-1.54,2.33-3.08,2.33h-2.94Zm1.45,3.31h1.33c1,0,1.45-.41,1.45-1s-.49-1-1.58-1h-1.2Zm0,3.59h1.34c.75,0,1.78-.12,1.78-1.2,0-.85-.55-1.15-1.72-1.15h-1.4Z"/><path class="cls-1" d="M175.28,76.1a.83.83,0,1,1-.87.83A.85.85,0,0,1,175.28,76.1Zm-.68,2.71H176v5.53H174.6Z"/><path class="cls-1" d="M180.76,78.67a2.9,2.9,0,1,1-3,2.9A2.87,2.87,0,0,1,180.76,78.67Zm0,4.56a1.66,1.66,0,1,0-1.62-1.66A1.6,1.6,0,0,0,180.76,83.23Z"/><path class="cls-2" d="M189.3,80.47a1.52,1.52,0,0,0-1.05-.55,1.66,1.66,0,0,0,0,3.31,1.31,1.31,0,0,0,1.07-.52l.92,1a3.09,3.09,0,0,1-2,.77,2.9,2.9,0,1,1,0-5.8,2.69,2.69,0,0,1,2,.84Z"/><path class="cls-2" d="M194.26,78.67a2.9,2.9,0,1,1-3,2.9A2.87,2.87,0,0,1,194.26,78.67Zm0,4.56a1.66,1.66,0,1,0-1.62-1.66A1.6,1.6,0,0,0,194.26,83.23Z"/><path class="cls-2" d="M199,78.81h1.31v.89h0a1.74,1.74,0,0,1,1.7-1,1.93,1.93,0,0,1,2,2.18v3.49h-1.38v-2.8c0-.61-.05-1.62-1-1.62a1.24,1.24,0,0,0-1.27,1.4v3H199Z"/><path class="cls-2" d="M205.45,80V78.81h1.14v-1.6H208v1.6h1.52V80H208V82.4c0,.56.16.9.77.9a1.54,1.54,0,0,0,.75-.17v1.16a2.89,2.89,0,0,1-1.1.18c-1.46,0-1.8-.65-1.8-2V80Z"/><path class="cls-2" d="M211,78.81h1.38v.88h0a1.75,1.75,0,0,1,1.63-1,2.09,2.09,0,0,1,.5.08v1.34a2.68,2.68,0,0,0-.67-.11,1.4,1.4,0,0,0-1.49,1.4v3H211Z"/><path class="cls-2" d="M218.49,78.67a2.9,2.9,0,1,1-3,2.9A2.87,2.87,0,0,1,218.49,78.67Zm0,4.56a1.66,1.66,0,1,0-1.62-1.66A1.6,1.6,0,0,0,218.49,83.23Z"/><path class="cls-2" d="M223.27,75.63h1.39v8.71h-1.39Z"/><path class="cls-2" d="M226.73,75.63h1.38v8.71h-1.38Z"/><path class="cls-2" d="M231.27,82.06a1.43,1.43,0,0,0,1.48,1.31,1.82,1.82,0,0,0,1.49-.75l1,.75a2.89,2.89,0,0,1-2.34,1.1,2.9,2.9,0,1,1,0-5.8c1.54,0,2.59,1.08,2.59,3v.38Zm2.83-1a1.26,1.26,0,0,0-1.4-1.31A1.37,1.37,0,0,0,231.27,81Z"/><path class="cls-2" d="M237.23,78.81h1.39v.88h0a1.75,1.75,0,0,1,1.63-1,2,2,0,0,1,.5.08v1.34a2.68,2.68,0,0,0-.67-.11,1.39,1.39,0,0,0-1.48,1.4v3h-1.39Z"/><path class="cls-2" d="M245.12,80.34a1.24,1.24,0,0,0-1.08-.56c-.37,0-.81.17-.81.58,0,1,3,.19,3,2.34,0,1.31-1.26,1.77-2.39,1.77a2.72,2.72,0,0,1-2.15-.85l.92-.86a1.71,1.71,0,0,0,1.31.68c.41,0,.92-.2.92-.63,0-1.14-3-.25-3-2.35,0-1.23,1.11-1.79,2.22-1.79a2.39,2.39,0,0,1,2,.84Z"/><path class="cls-2" d="M245.64,55h0l-5.76-6.19h0a1.27,1.27,0,0,0-1.79,0h0A10.92,10.92,0,0,1,230.18,52c-8.29,0-13.29-6.51-13.29-13.58s5-13.58,13.29-13.58c2.69,0,5.29,1.42,7.69,3.66h0a1.28,1.28,0,0,0,1.8,0h0l6-6a1.27,1.27,0,0,0,.08-1.79h0a22.41,22.41,0,0,0-15.57-6c-13.67,0-24.61,9.53-24.61,23.76s10.94,23.76,24.61,23.76c3.66,0,10.54-1.46,15.2-5.32l.07-.06a1.09,1.09,0,0,0,.17-.13h0a1.29,1.29,0,0,0,.35-.87A1.25,1.25,0,0,0,245.64,55Z"/><path class="cls-3" d="M176.44,24.85c-8.29,0-13.29,6.51-13.29,13.58S168.15,52,176.44,52s13.3-6.51,13.3-13.58S184.74,24.85,176.44,24.85Z"/><path class="cls-4" d="M179.18,14.67c-8.49,0-13,4-15.37,6.89h-.28V6.83a5.28,5.28,0,0,0-5.28-5.28h-.76a5.28,5.28,0,0,0-5.28,5.28v52.9h0a1.34,1.34,0,0,0,1.34,1.33h8.06A1.34,1.34,0,0,0,163,59.73h0V54.27h.19c3.3,5.47,9.24,7.92,15.56,7.92,13.95,0,22.34-10.37,22.34-23.76S192.1,14.67,179.18,14.67ZM176.44,52c-8.29,0-13.29-6.51-13.29-13.58s5-13.58,13.29-13.58,13.3,6.51,13.3,13.58S184.74,52,176.44,52Z"/><path class="cls-2" d="M124.49,14.67c-6.61,0-13.15,1.86-18,6.16l-.23.2-.07.06h0a1.32,1.32,0,0,0-.31.85,1.35,1.35,0,0,0,.44,1h0l4,4h0a1.33,1.33,0,0,0,1,.46,1.38,1.38,0,0,0,.73-.21h0a17.87,17.87,0,0,1,11.26-4c6,0,10.37,2.92,10.37,8.48v1.23h-2.83c-11.31,0-28.47,1-28.47,15.74,0,9,8.11,13.58,16.5,13.58,6,0,11.31-2.26,14.52-7.35h.28v4.89A1.34,1.34,0,0,0,135,61.06h7.51a1.33,1.33,0,0,0,1.33-1.33h0V35C143.82,28.63,143.82,14.67,124.49,14.67ZM133,41v2.29c0,6.32-3.67,10.38-11.41,10.38-3.67,0-7.92-1.8-7.92-5.94,0-6.51,10.75-7,17-7H133Z"/></g></g></svg>