<svg id="Layer_1" data-name="Layer 1" xmlns="http://www.w3.org/2000/svg" viewBox="0 0 500 319.19"><defs><style>.cls-1{fill:#f7b519;}.cls-2{fill:#d59029;}</style></defs><title>Fotovive Logo A – amarillo</title><path class="cls-1" d="M130.4,231.57a26.28,26.28,0,0,0-24.12,0,21.75,21.75,0,0,0-11.56,19.51,22.32,22.32,0,0,0,3.09,11.62,22,22,0,0,0,8.47,8.17,24.72,24.72,0,0,0,12.07,3,24.44,24.44,0,0,0,12.05-3A22.11,22.11,0,0,0,142,251.08a21.7,21.7,0,0,0-11.56-19.51Zm-1.71,26.15a12,12,0,0,1-4.27,4.67,10.91,10.91,0,0,1-6,1.71,11,11,0,0,1-6-1.71,12.67,12.67,0,0,1-4.4-4.67,13.92,13.92,0,0,1,0-13.09,12.06,12.06,0,0,1,4.4-4.64,11.26,11.26,0,0,1,6-1.69,11,11,0,0,1,6,1.69,11.82,11.82,0,0,1,4.27,4.64,13.73,13.73,0,0,1,1.56,6.51A13.92,13.92,0,0,1,128.69,257.72Z"/><path class="cls-1" d="M240.09,231.57a26.28,26.28,0,0,0-24.12,0,21.75,21.75,0,0,0-11.56,19.51,22.32,22.32,0,0,0,3.09,11.62,22,22,0,0,0,8.47,8.17,25.93,25.93,0,0,0,24.12,0,22.11,22.11,0,0,0,11.56-19.76,21.7,21.7,0,0,0-11.56-19.51Zm-1.71,26.15a12.12,12.12,0,0,1-4.27,4.67,11,11,0,0,1-6,1.71,11.09,11.09,0,0,1-6-1.71,12.65,12.65,0,0,1-4.39-4.67,13.92,13.92,0,0,1,0-13.09,12.11,12.11,0,0,1,4.39-4.64,11.31,11.31,0,0,1,6-1.69,11,11,0,0,1,6,1.69,11.89,11.89,0,0,1,4.27,4.64,13.84,13.84,0,0,1,1.55,6.51A14,14,0,0,1,238.38,257.72Z"/><path class="cls-1" d="M154.87,238.74h13v27.44a6.84,6.84,0,0,0,6.84,6.84h4.57V238.74h13.08v-9.41H154.87Z"/><path class="cls-1" d="M288,260.93l-10.9-31.6H264.8l15.26,39.32a6.84,6.84,0,0,0,6.37,4.37h7.16l17.08-43.69H299Z"/><path class="cls-1" d="M327.25,266.18a6.84,6.84,0,0,0,6.84,6.84h4.56V229.33h-11.4Z"/><path class="cls-1" d="M378.42,260.93l-10.91-31.6H355.23l15.26,39.32a6.84,6.84,0,0,0,6.37,4.37H384l17.08-43.69H389.38Z"/><polygon class="cls-1" points="449.89 238.43 452.14 238.43 452.14 229.33 417.68 229.33 417.68 238.43 429.08 238.43 449.89 238.43"/><path class="cls-1" d="M429.08,263.92v-8.23l20.81-.06v-9H417.68v19.59a6.84,6.84,0,0,0,6.84,6.84h28.24v-9.1Z"/><path class="cls-1" d="M47.24,246.59v19.59A6.84,6.84,0,0,0,54.08,273h4.56V255.69l20.81-.06v-9H47.24Z"/><polygon class="cls-1" points="47.24 238.43 58.64 238.43 79.45 238.43 81.7 238.43 81.7 229.33 47.24 229.33 47.24 238.43"/><path class="cls-1" d="M300.33,130.92l-3.28-3.28L264.38,95l-49-49L169.31,92.12l49,49L254.22,177a16.77,16.77,0,0,0,23.7,0l20.46-20.46,13.8-13.8L324,130.92A16.77,16.77,0,0,1,300.33,130.92ZM257.17,95.13,261,99l-3.68,3.68-3.86-3.86Zm-8.33-8.34,3.86,3.86L249,94.33l-3.86-3.86Zm-8.34-8.34,3.86,3.86L240.68,86l-3.86-3.86Zm-8.34-8.33L236,74l-3.68,3.68-3.86-3.86Zm-8.33-8.34,3.86,3.86L224,69.32l-3.86-3.86ZM180.6,96.05l-3.86-3.86,3.69-3.68,3.86,3.86Zm8.34,8.33-3.86-3.86,3.68-3.68,3.86,3.86Zm8.34,8.34-3.86-3.86,3.68-3.68L201,109Zm8.33,8.34-3.86-3.86,3.69-3.68,3.86,3.86Zm8.34,8.33-3.86-3.86,3.68-3.68,3.86,3.86ZM215.67,61l-3.86-3.86,3.68-3.68,3.86,3.86Zm6.62,76.75-3.86-3.86,3.68-3.68,3.86,3.86Zm8.33,8.34-3.86-3.86,3.69-3.68,3.86,3.86ZM239,154.4l-3.86-3.86,3.68-3.68,3.86,3.86Zm8.34,8.34-3.86-3.86,3.68-3.68,3.86,3.86Zm8.33,8.34-3.86-3.86,3.69-3.68,3.86,3.86Zm9.43,6.08a18.71,18.71,0,0,1-4.18-2.2c1.47-1.46,2.2-2.2,3.66-3.66a18.23,18.23,0,0,0,4.17,2.2Zm.63-66.16-3.86-3.86,3.68-3.68,3.86,3.86Zm8.16.8,3.86,3.86L274,119.34l-3.86-3.86Zm.83,65.1a9.22,9.22,0,0,1-4.31,1.17c1.47-1.46,2.2-2.19,3.66-3.66a9.28,9.28,0,0,0,4.33-1.19Zm7.68-49.22-3.86-3.86,3.68-3.68L286,124ZM290.7,136l-3.86-3.86,3.68-3.68,3.86,3.86Zm9,6.35a16.43,16.43,0,0,1-4.1-2.25l3.65-3.66a16.93,16.93,0,0,0,4.09,2.26Zm10-.52a10.26,10.26,0,0,1-4.61,1.38l3.65-3.66a10.45,10.45,0,0,0,4.64-1.4Z"/><path class="cls-2" d="M268.07,91.29l36.52,36.52a14.38,14.38,0,0,0,19.73-.55l36-36L314.18,45.18Zm12.51,2.22-3.68-3.69L280.76,86l3.68,3.69Zm8.34-8.34-3.68-3.68,3.86-3.86,3.68,3.68Zm8.33-8.34-3.68-3.68,3.86-3.86L301.11,73Zm8.34-8.33-3.68-3.69L305.77,61l3.68,3.69Zm43.58,19.18,3.68,3.68L349,95.22l-3.68-3.68ZM340.83,96l3.68,3.68-3.86,3.86L337,99.88Zm-8.33,8.33,3.68,3.69-3.86,3.86-3.68-3.69Zm-8.34,8.34,3.68,3.68L324,120.23l-3.68-3.68Zm-4.83,12.2a5.22,5.22,0,0,1-7.37,0l3.86-3.86,3.68,3.68Zm-5.4-64.73-3.68-3.68,3.86-3.86,3.68,3.68Z"/></svg>