<?xml version="1.0" encoding="UTF-8"?>
<!DOCTYPE svg PUBLIC "-//W3C//DTD SVG 1.1//EN" "http://www.w3.org/Graphics/SVG/1.1/DTD/svg11.dtd">
<!-- Creator: CorelDRAW 2018 (64-Bit) -->
<svg xmlns="http://www.w3.org/2000/svg" xml:space="preserve" width="0.296661in" height="0.296661in" version="1.1" style="shape-rendering:geometricPrecision; text-rendering:geometricPrecision; image-rendering:optimizeQuality; fill-rule:evenodd; clip-rule:evenodd"
viewBox="0 0 566 566"
 xmlns:xlink="http://www.w3.org/1999/xlink">
 <defs>
  <style type="text/css">
   <![CDATA[
    .fil3 {fill:black}
    .fil0 {fill:#5A54E0}
    .fil2 {fill:#6A80FF}
    .fil1 {fill:#FEDA9B}
   ]]>
  </style>
 </defs>
 <g id="Layer_x0020_1">
  <metadata id="CorelCorpID_0Corel-Layer"/>
  <g id="_1440459889584">
   <path class="fil0" d="M312 555l-58 0c-13,0 -24,-11 -24,-24l0 -20 106 0 0 20c0,13 -11,24 -24,24z"/>
   <path class="fil1" d="M454 182c0,-95 -77,-172 -172,-171 -92,1 -167,75 -170,166 -1,48 17,92 48,123 29,30 45,70 45,112l0 2 157 0 0 -2c0,-42 17,-83 46,-113 29,-31 47,-72 47,-117z"/>
   <path class="fil2" d="M340 511l-113 0c-12,0 -22,-10 -22,-22l0 -74 157 0 0 74c0,12 -10,22 -22,22z"/>
   <path class="fil3" d="M283 0c0,0 -1,0 -1,0 -47,0 -92,19 -126,52 -34,33 -53,78 -55,125 -1,49 17,96 51,131 27,28 42,65 42,105l0 76c0,16 11,29 25,32l0 10c0,19 16,35 35,35l58 0c19,0 35,-16 35,-35l0 -10c15,-3 26,-17 26,-32l0 -76c0,-39 15,-77 43,-106 32,-34 50,-78 50,-125 0,-49 -19,-95 -54,-129 -34,-34 -80,-53 -128,-53zm42 531c0,7 -6,13 -13,13l-58 0c-7,0 -13,-6 -13,-13l0 -9 84 0 0 9zm26 -42c0,6 -5,11 -11,11l-4 0 -106 0 -3 0c-6,0 -11,-5 -11,-11l0 -63 135 0 0 63 0 0zm-107 -247l-12 0c-5,0 -10,-4 -10,-10l0 -2c0,-5 4,-10 10,-10l2 0c5,0 10,4 10,10l0 12 0 0zm57 162l-34 0 0 -140 34 0 0 140zm99 -112c-29,31 -46,70 -49,112l-29 0 0 -140 10 0c18,0 32,-14 32,-32l0 -2c0,-18 -14,-32 -32,-32 -18,0 -32,14 -32,32l0 12 -34 0 0 -12c0,-18 -14,-32 -32,-32l-2 0c-18,0 -32,14 -32,32l0 2c0,18 14,32 32,32l12 0 0 140 -28 0c-2,-42 -19,-81 -48,-111 -30,-31 -46,-72 -45,-115 2,-85 74,-155 159,-156 43,0 83,16 114,46 30,30 47,71 47,114 0,41 -16,80 -44,110zm-77 -50l0 -12c0,-5 4,-10 10,-10 5,0 10,4 10,10l0 2c0,5 -4,10 -10,10l-10 0z"/>
   <path class="fil3" d="M355 76c-22,-15 -47,-22 -73,-22 -6,0 -11,5 -11,11 0,6 5,11 11,11 0,0 0,0 0,0 0,0 1,0 1,0 44,0 82,26 98,66 2,4 6,7 10,7 1,0 3,0 4,-1 6,-2 8,-9 6,-14 -10,-24 -26,-44 -47,-58z"/>
   <path class="fil3" d="M392 174c-2,2 -3,5 -3,8 0,3 1,6 3,8 2,2 5,3 8,3 3,0 6,-1 8,-3 2,-2 3,-5 3,-8 0,-3 -1,-6 -3,-8 -2,-2 -5,-3 -8,-3 -3,0 -6,1 -8,3z"/>
   <path class="fil3" d="M485 95c3,0 6,-1 8,-3l21 -21c4,-4 4,-11 0,-16 -4,-4 -11,-4 -16,0l-21 21c-4,4 -4,11 0,16 2,2 5,3 8,3z"/>
   <path class="fil3" d="M493 273c-4,-4 -11,-4 -16,0 -4,4 -4,11 0,16l21 21c2,2 5,3 8,3 3,0 6,-1 8,-3 4,-4 4,-11 0,-16l-21 -21z"/>
   <path class="fil3" d="M555 171l-29 0c-6,0 -11,5 -11,11 0,6 5,11 11,11l29 0c6,0 11,-5 11,-11 0,-6 -5,-11 -11,-11z"/>
   <path class="fil3" d="M68 55c-4,-4 -11,-4 -16,0 -4,4 -4,11 0,16l21 21c2,2 5,3 8,3 3,0 6,-1 8,-3 4,-4 4,-11 0,-16l-21 -21z"/>
   <path class="fil3" d="M73 273l-21 21c-4,4 -4,11 0,16 2,2 5,3 8,3 3,0 6,-1 8,-3l21 -21c4,-4 4,-11 0,-16 -4,-4 -11,-4 -16,0z"/>
   <path class="fil3" d="M40 171l-29 0c-6,0 -11,5 -11,11 0,6 5,11 11,11l29 0c6,0 11,-5 11,-11 0,-6 -5,-11 -11,-11z"/>
  </g>
 </g>
</svg>
