<?xml version="1.0" encoding="UTF-8"?>
<!DOCTYPE svg PUBLIC "-//W3C//DTD SVG 1.1//EN" "http://www.w3.org/Graphics/SVG/1.1/DTD/svg11.dtd">
<!-- Creator: CorelDRAW 2018 (64-Bit) -->
<svg xmlns="http://www.w3.org/2000/svg" xml:space="preserve" width="0.296004in" height="0.296in" version="1.1" style="shape-rendering:geometricPrecision; text-rendering:geometricPrecision; image-rendering:optimizeQuality; fill-rule:evenodd; clip-rule:evenodd"
viewBox="0 0 450 450"
 xmlns:xlink="http://www.w3.org/1999/xlink">
 <defs>
  <style type="text/css">
   <![CDATA[
    .fil5 {fill:black}
    .fil2 {fill:#72D8FF}
    .fil0 {fill:#FEDA9B}
    .fil4 {fill:#FF5D5D}
    .fil1 {fill:#FFB954}
    .fil3 {fill:white}
   ]]>
  </style>
 </defs>
 <g id="Layer_x0020_1">
  <metadata id="CorelCorpID_0Corel-Layer"/>
  <g id="_1440858058896">
   <path class="fil0" d="M104 241l-21 21c-41,41 -61,100 -53,158l0 0 0 0c58,8 116,-12 158,-53l21 -21 -104 -104z"/>
   <path class="fil1" d="M135 268l-9 9c-18,18 -27,44 -23,69l0 0 0 0c26,3 51,-5 69,-23l9 -9 -46 -46z"/>
   <path class="fil2" d="M65 198l-57 -57 4 -4c46,-46 112,-67 177,-55l0 0 178 178 0 0c12,64 -9,131 -55,177l-4 4 -57 -57 -186 -186z"/>
   <path class="fil3" d="M441 9l0 0 0 0c-114,-5 -224,38 -305,119l-70 70 186 186 70 -70c80,-80 124,-191 119,-305z"/>
   <path class="fil2" d="M420 157c16,-47 23,-97 21,-148l0 0 0 0c-51,-2 -101,5 -148,21l127 127z"/>
   <circle class="fil4" cx="250" cy="200" r="77"/>
   <circle class="fil3" cx="250" cy="200" r="42"/>
   <path class="fil5" d="M449 9c0,-5 -4,-8 -8,-8 -58,-3 -114,7 -168,28 -30,12 -59,27 -85,45 -66,-11 -133,11 -181,58l-4 4c-2,2 -3,4 -3,6 0,2 1,5 3,6l91 91 -17 17c-21,21 -38,47 -47,76 -10,28 -13,59 -8,89 1,4 4,7 8,8 9,1 17,2 26,2 21,0 43,-3 63,-10 28,-10 55,-26 76,-47l17 -17 91 91c2,2 4,3 6,3 2,0 4,-1 6,-3l4 -4c47,-47 69,-115 58,-181 18,-26 33,-55 45,-85 21,-54 30,-111 28,-168zm-282 80c-13,10 -25,21 -37,33l-64 64 -44 -44c39,-38 92,-57 146,-53zm-25 46c77,-77 182,-119 290,-116 1,42 -5,83 -17,123l-64 -64c-3,-3 -9,-3 -12,0 -3,3 -3,9 0,12l70 70c-20,55 -51,106 -94,149l-64 64 -174 -174 64 -64zm-5 148l9 9 -14 14c-3,3 -3,9 0,12 2,2 4,3 6,3 2,0 4,-1 6,-3l14 -14 9 9 -6 6c-14,14 -33,21 -52,20 -2,-21 3,-34 15,-46l11 -11zm44 79c-38,38 -91,56 -143,51 -5,-53 14,-106 51,-143l17 -17 18 18 -11 11c-22,22 -22,47 -19,68 1,4 4,7 8,8 4,1 8,1 12,1 23,0 45,-9 62,-25l6 -6 18 18 -17 17zm127 68l-44 -44 64 -64c12,-12 23,-24 33,-37 4,54 -15,107 -53,146z"/>
   <path class="fil5" d="M250 149c-28,0 -51,23 -51,51 0,28 23,51 51,51 28,0 51,-23 51,-51 0,-28 -23,-51 -51,-51zm0 18c6,0 12,2 17,5l-46 46c-3,-5 -5,-11 -5,-17 0,-18 15,-33 33,-33zm0 67c-6,0 -11,-1 -16,-4l45 -45c3,5 4,10 4,16 0,18 -15,33 -33,33z"/>
   <path class="fil5" d="M336 200c0,-47 -39,-86 -86,-86 -47,0 -86,39 -86,86 0,47 39,86 86,86 47,0 86,-39 86,-86zm-86 69c-38,0 -69,-31 -69,-69 0,-38 31,-69 69,-69 38,0 69,31 69,69 0,38 -31,69 -69,69z"/>
   <path class="fil5" d="M321 67c2,0 5,-1 6,-3 2,-2 3,-4 3,-6 0,-2 -1,-5 -3,-6 -2,-2 -4,-3 -6,-3 -2,0 -5,1 -6,3 -2,2 -3,4 -3,6 0,2 1,5 3,6 2,2 4,3 6,3z"/>
  </g>
 </g>
</svg>
