<?xml version="1.0" encoding="UTF-8"?>
<!DOCTYPE svg PUBLIC "-//W3C//DTD SVG 1.1//EN" "http://www.w3.org/Graphics/SVG/1.1/DTD/svg11.dtd">
<!-- Creator: CorelDRAW 2018 (64-Bit) -->
<svg xmlns="http://www.w3.org/2000/svg" xml:space="preserve" width="0.251067in" height="0.318181in" version="1.1" style="shape-rendering:geometricPrecision; text-rendering:geometricPrecision; image-rendering:optimizeQuality; fill-rule:evenodd; clip-rule:evenodd"
viewBox="0 0 358 453"
 xmlns:xlink="http://www.w3.org/1999/xlink">
 <defs>
  <style type="text/css">
   <![CDATA[
    .fil4 {fill:black}
    .fil2 {fill:#96EDE7}
    .fil1 {fill:#FEC96B}
    .fil0 {fill:#FED284}
    .fil3 {fill:#FF5D5D}
   ]]>
  </style>
 </defs>
 <g id="Layer_x0020_1">
  <metadata id="CorelCorpID_0Corel-Layer"/>
  <g id="_1442745938208">
   <path class="fil0" d="M179 9l0 0c-14,0 -25,11 -25,25l0 363 50 0 0 -363c0,-14 -11,-25 -25,-25z"/>
   <path class="fil1" d="M349 444l-340 0 0 0c0,-26 21,-48 48,-48l244 0c26,0 48,21 48,48l0 0z"/>
   <polygon class="fil2" points="278,177 9,177 9,57 278,57 338,117 "/>
   <polygon class="fil3" points="79,220 348,220 348,340 79,340 19,280 "/>
   <path class="fil4" d="M301 388l-89 0 0 -39 136 0c5,0 9,-4 9,-9l0 -120c0,-5 -4,-9 -9,-9l-31 0c-5,0 -9,4 -9,9 0,5 4,9 9,9l22 0 0 103 -42 0 -60 -60c-2,-2 -4,-3 -6,-3 -2,0 -5,1 -6,3l-20 20 -30 -30c4,-1 7,-4 7,-9 0,-5 -4,-9 -9,-9l-20 0c-5,0 -9,4 -9,9l0 20c0,5 4,9 9,9 4,0 8,-3 9,-7l36 36c2,2 4,3 6,3 2,0 5,-1 6,-3l20 -20 41 41 -190 0 -52 -51 52 -51 71 0 50 0 41 0c5,0 9,-4 9,-9 0,-5 -4,-9 -9,-9l-32 0 0 -25 66 0c2,0 5,-1 6,-3l60 -60c2,-2 3,-4 3,-6 0,-2 -1,-5 -3,-6l-60 -60c-2,-2 -4,-3 -6,-3l-66 0 0 -14c0,-19 -15,-34 -34,-34 -19,0 -34,15 -34,34l0 14 -39 0c-5,0 -9,4 -9,9 0,5 4,9 9,9l168 0 52 51 -52 51 -190 0 41 -41 20 20c2,2 4,3 6,3 2,0 5,-1 6,-3l36 -36c1,4 4,7 9,7 5,0 9,-4 9,-9l0 -20c0,-5 -4,-9 -9,-9l-20 0c-5,0 -9,4 -9,9 0,4 3,8 7,9l-30 30 -20 -20c-2,-2 -4,-3 -6,-3 -2,0 -5,1 -6,3l-60 60 -42 0 0 -103 19 0c5,0 9,-4 9,-9 0,-5 -4,-9 -9,-9l-27 0c-5,0 -9,4 -9,9l0 120c0,5 4,9 9,9l136 0 0 25 -66 0c-2,0 -5,1 -6,3l-60 60c-2,2 -3,4 -3,6 0,2 1,5 3,6l60 60c2,2 4,3 6,3l66 0 0 39 -89 0c-31,0 -57,25 -57,57 0,5 4,9 9,9l340 0c5,0 9,-4 9,-9 0,-31 -25,-57 -57,-57zm-138 -340l0 -14c0,-9 7,-16 16,-16 9,0 16,7 16,16l0 14 -32 0zm0 138l32 0 0 25 -32 0 0 -25zm0 163l32 0 0 39 -32 0 0 -39zm-144 87c4,-17 20,-30 38,-30l244 0c18,0 34,13 38,30l-320 0z"/>
   <path class="fil4" d="M71 66c2,0 5,-1 6,-3 2,-2 3,-4 3,-6 0,-2 -1,-5 -3,-6 -2,-2 -4,-3 -6,-3 -2,0 -5,1 -6,3 -2,2 -3,4 -3,6 0,2 1,5 3,6 2,2 4,3 6,3z"/>
   <path class="fil4" d="M276 213c-2,2 -3,4 -3,6 0,2 1,5 3,6 2,2 4,3 6,3 2,0 5,-1 6,-3 2,-2 3,-4 3,-6 0,-2 -1,-5 -3,-6 -2,-2 -4,-3 -6,-3 -2,0 -5,1 -6,3z"/>
  </g>
 </g>
</svg>
