<?xml version="1.0" encoding="UTF-8"?>
<!DOCTYPE svg PUBLIC "-//W3C//DTD SVG 1.1//EN" "http://www.w3.org/Graphics/SVG/1.1/DTD/svg11.dtd">
<!-- Creator: CorelDRAW 2018 (64-Bit) -->
<svg xmlns="http://www.w3.org/2000/svg" xml:space="preserve" width="0.384197in" height="0.248339in" version="1.1" style="shape-rendering:geometricPrecision; text-rendering:geometricPrecision; image-rendering:optimizeQuality; fill-rule:evenodd; clip-rule:evenodd"
viewBox="0 0 1094 707"
 xmlns:xlink="http://www.w3.org/1999/xlink">
 <defs>
  <style type="text/css">
   <![CDATA[
    .fil4 {fill:black}
    .fil3 {fill:#A0E557}
    .fil2 {fill:#FF5D5D}
    .fil1 {fill:#FFDCA0}
    .fil0 {fill:#FFE1AF}
   ]]>
  </style>
 </defs>
 <g id="Layer_x0020_1">
  <metadata id="CorelCorpID_0Corel-Layer"/>
  <g id="_1442745952224">
   <path class="fil0" d="M870 483l-264 -434c-54,-24 -113,-31 -171,-20l-175 34 -102 0 0 360c22,0 44,7 62,21l13 10 347 159c20,19 51,19 70,-1 19,-20 19,-51 -1,-70l-111 -108 54 52 111 108c20,19 51,19 70,-1 19,-20 19,-51 -1,-70l-111 -108 70 68 71 69c20,19 51,19 70,-1l0 0c19,-20 19,-51 -1,-70z"/>
   <path class="fil1" d="M935 394l-95 51 -203 -186 -78 -7 -174 99c-22,12 -49,8 -66,-10l0 0c-21,-21 -20,-55 1,-76l162 -160c34,-34 81,-53 129,-53l324 0 0 343z"/>
   <path class="fil2" d="M935 448l0 -405c0,-12 10,-21 21,-21l115 0 0 448 -115 0c-12,0 -21,-10 -21,-21z"/>
   <path class="fil3" d="M158 448l0 -405c0,-12 -10,-21 -21,-21l-115 0 0 448 115 0c12,0 21,-10 21,-21z"/>
   <g>
    <path class="fil1" d="M254 497l0 0c-20,-16 -23,-46 -6,-66l17 -21c16,-20 46,-23 66,-6l0 0c20,16 23,46 6,66l-17 21c-16,20 -46,23 -66,6z"/>
    <path class="fil1" d="M326 556l0 0c-20,-16 -23,-46 -6,-66l17 -21c16,-20 46,-23 66,-6l0 0c20,16 23,46 6,66l-17 21c-16,20 -46,23 -66,6z"/>
    <path class="fil1" d="M398 616l0 0c-20,-16 -23,-46 -6,-66l17 -21c16,-20 46,-23 66,-6l0 0c20,16 23,46 6,66l-17 21c-16,20 -46,23 -66,6z"/>
    <path class="fil1" d="M470 675l0 0c-20,-16 -23,-46 -6,-66l17 -21c16,-20 46,-23 66,-6l0 0c20,16 23,46 6,66l-17 21c-16,20 -46,23 -66,6z"/>
   </g>
   <path class="fil4" d="M1072 0l-115 0c-19,0 -35,12 -41,30l-301 0c0,0 0,0 -1,0 -58,-26 -122,-34 -184,-22l-173 34 -79 0c-1,-23 -20,-41 -43,-41l-115 0c-12,0 -21,10 -21,21l0 137c0,12 10,21 21,21 12,0 21,-10 21,-21l0 -116 94 0 0 405 -94 0 0 -114c0,-12 -10,-21 -21,-21 -12,0 -21,10 -21,21l0 135c0,12 10,21 21,21l115 0c24,0 43,-19 43,-43l0 0c10,3 19,7 27,14l10 8c2,17 10,33 24,45 13,10 28,15 43,15 2,0 3,0 5,0 2,17 11,33 24,44 13,10 28,15 43,15 2,0 3,0 5,0 2,17 11,33 24,44l0 0c12,10 27,16 43,16 2,0 3,0 5,0 2,17 10,32 24,44 12,10 27,16 43,16 2,0 4,0 7,0 18,-2 34,-10 46,-24l17 -21c5,-6 9,-13 11,-20 10,5 21,8 33,8 0,0 1,0 1,0 19,0 37,-8 50,-21 7,-7 12,-15 15,-24l7 7c14,13 32,20 49,20 18,0 37,-7 51,-21 8,-8 13,-18 17,-28 10,5 21,7 31,7 18,0 37,-7 51,-21 13,-14 20,-31 20,-50 0,-19 -8,-37 -21,-50l-15 -14 44 -24 0 18c0,24 19,43 43,43l115 0c12,0 21,-10 21,-21l0 -142c0,-12 -10,-21 -21,-21 -12,0 -21,10 -21,21l0 120 -94 0 0 -54c0,0 0,0 0,0l0 -351 94 0 0 119c0,12 10,21 21,21 12,0 21,-10 21,-21l0 -141c0,-12 -10,-21 -21,-21zm-804 481c-11,-9 -12,-25 -3,-36l17 -21c4,-5 10,-8 17,-9 1,0 2,0 2,0 6,0 11,2 16,6 11,9 12,25 3,36l-17 21c-9,11 -25,12 -36,3zm72 59l0 0c-5,-4 -8,-10 -9,-17 -1,-7 1,-13 6,-18l17 -21c4,-5 10,-8 17,-9 1,0 2,0 2,0 6,0 11,2 16,6 5,4 8,10 9,17 1,7 -1,13 -6,18l-17 21c-9,11 -25,12 -36,3zm72 59l0 0c-5,-4 -8,-10 -9,-17 -1,-7 1,-13 6,-18l17 -21c5,-6 12,-9 19,-9 6,0 11,2 16,6 11,9 12,25 3,36l-17 21c-4,5 -10,8 -17,9 -7,1 -13,-1 -18,-6zm125 35l-17 21c-4,5 -10,8 -17,9 -7,1 -13,-1 -18,-6 -11,-9 -12,-25 -3,-36l17 -21c4,-5 10,-8 17,-9 1,0 2,0 2,0 6,0 11,2 16,6 5,4 8,10 9,17 1,7 -1,13 -6,18zm319 -96c-11,11 -29,11 -40,1l-71 -69c0,0 0,0 0,0l-70 -68c-8,-8 -22,-8 -30,0 -8,8 -8,22 0,30l111 108c11,11 11,29 1,40 -11,11 -29,11 -40,1l-111 -108c0,0 0,0 -1,-1l-53 -52c-8,-8 -22,-8 -30,0 -8,8 -8,22 0,30l111 108c11,11 11,29 1,40 -5,5 -12,8 -20,8 -7,0 -15,-3 -20,-8l-31 -30c-1,-1 -1,-1 -2,-2 0,0 -1,-1 -1,-1 -14,-11 -31,-16 -48,-15 -2,-17 -10,-32 -24,-44 -14,-11 -31,-16 -48,-15 -2,-17 -11,-33 -24,-44 -13,-11 -30,-17 -48,-15 -2,-17 -10,-32 -24,-44 -14,-12 -32,-17 -50,-15 -18,2 -34,10 -46,24l-17 21c-1,2 -3,4 -4,5 -14,-10 -31,-17 -48,-20l0 -320 81 0c1,0 3,0 4,0l175 -34c30,-6 60,-6 89,-2 -22,10 -42,24 -60,41l-162 160c-29,29 -30,77 -1,106 15,15 34,23 54,23 13,0 26,-3 37,-10l169 -96 59 0 231 225c5,5 8,12 8,20 0,7 -3,15 -8,20zm-18 -116l-153 -149 15 0c12,0 21,-10 21,-21 0,-12 -10,-21 -21,-21l-140 0c-4,0 -7,1 -11,3l-174 99c-13,7 -29,5 -40,-6 -12,-13 -12,-34 1,-46l162 -160c31,-30 71,-47 114,-47l302 0 0 308 -76 41z"/>
   <path class="fil4" d="M1072 224c-6,0 -11,2 -15,6 -4,4 -6,9 -6,15 0,6 2,11 6,15 4,4 9,6 15,6 6,0 11,-2 15,-6 4,-4 6,-9 6,-15 0,-6 -2,-11 -6,-15 -4,-4 -9,-6 -15,-6z"/>
   <path class="fil4" d="M21 267c6,0 11,-2 15,-6 4,-4 6,-9 6,-15 0,-6 -2,-11 -6,-15 -4,-4 -9,-6 -15,-6 -6,0 -11,2 -15,6 -4,4 -6,9 -6,15 0,6 2,11 6,15 4,4 9,6 15,6z"/>
  </g>
 </g>
</svg>
